<svg width="3245" height="1832" viewBox="0 0 3245 1832" fill="none" xmlns="http://www.w3.org/2000/svg">
<path d="M165.18 53.9233L166.81 53.9053C168.04 56.7393 167.43 169.478 167.43 181.965C132.63 166.939 85.63 150.591 49.41 136.831C32.88 130.483 16.41 123.987 0 117.343L165.18 53.9233ZM28.41 117.491L68.22 133.016L125.95 154.914C135.24 158.425 148.76 163.085 157.54 167.13C157.43 157.844 157.68 70.6083 156.57 68.8833L155.11 68.7833C113.68 84.9603 69.16 100.475 28.41 117.491Z" fill="#DF1314"/>
<path d="M263.362 34.6104C266.142 38.9404 278.281 72.7103 281.031 79.9803C296.381 120.33 311.532 160.75 326.482 201.26L266.592 201.19L200.582 201.26L263.362 34.6104ZM215.112 191.04L265.842 191.06C280.692 191.07 297.422 190.68 312.112 191.19C306.692 176.88 265.812 66.4803 262.972 64.5603C250.392 100.71 235.432 136.41 222.352 172.42C220.142 178.5 217.702 185.16 215.112 191.04Z" fill="#EB201A"/>
<path d="M260.642 144.6C266.932 142.97 273.362 146.71 275.072 152.98C276.772 159.25 273.102 165.73 266.852 167.5C262.742 168.66 258.322 167.53 255.292 164.53C252.252 161.53 251.052 157.13 252.162 153.01C253.272 148.88 256.512 145.67 260.642 144.6Z" fill="#EB201A"/>
<path d="M428.021 9.07324C432.231 10.5652 481.791 60.8352 489.231 68.2482C484.391 83.4402 475.151 105.164 469.191 120.522C455.381 155.776 441.791 191.114 428.401 226.534C427.791 226.984 428.241 226.756 426.911 226.591C406.821 174.121 387.021 121.546 367.481 68.8682L428.021 9.07324ZM427.641 199.754C438.041 168.97 451.791 137.95 463.121 107.433C465.251 101.696 475.371 77.0522 476.151 73.1572L380.241 73.1652C395.611 115.543 412.181 157.472 427.641 199.754ZM381.671 69.1062C391.971 70.2552 417.581 69.6542 428.791 69.5422C441.501 69.4162 464.081 70.2512 476.121 69.3252C461.851 54.9742 443.201 36.2782 428.471 22.9522C413.001 38.4752 397.401 53.8602 381.671 69.1062Z" fill="#DF1314"/>
<path d="M380.241 73.1654L381.671 69.1064C391.971 70.2554 417.581 69.6544 428.791 69.5424C441.501 69.4164 464.081 70.2514 476.121 69.3254L476.151 73.1574L380.241 73.1654Z" fill="#EB201A"/>
<path d="M806.347 39.7492C807.668 40.8862 851.138 158.36 854.378 167.799C867.837 127.154 886.694 80.2822 901.959 39.7002C905.076 40.5362 907.298 40.7482 909.542 43.0002C911.51 49.5572 904.712 61.6542 901.78 69.1972C900.388 75.0422 890.352 100.492 887.651 107.711L854.504 196.17C834.896 145.307 815.804 94.2462 797.231 42.9962L806.347 39.7492Z" fill="#DF1314"/>
<path d="M1280.67 34.6104C1283.45 38.9404 1295.59 72.7103 1298.34 79.9803C1313.69 120.33 1328.84 160.75 1343.79 201.26L1283.9 201.19L1217.89 201.26L1280.67 34.6104ZM1232.42 191.04L1283.15 191.06C1298 191.07 1314.73 190.68 1329.42 191.19C1324 176.88 1283.12 66.4803 1280.28 64.5603C1267.7 100.71 1252.74 136.41 1239.66 172.42C1237.45 178.5 1235.01 185.16 1232.42 191.04Z" fill="#EB201A"/>
<path d="M1277.95 144.6C1284.24 142.97 1290.67 146.71 1292.38 152.98C1294.08 159.25 1290.41 165.73 1284.16 167.5C1280.05 168.66 1275.63 167.53 1272.6 164.53C1269.56 161.53 1268.36 157.13 1269.47 153.01C1270.58 148.88 1273.82 145.67 1277.95 144.6Z" fill="#EB201A"/>
<path d="M1446.04 8C1448.21 9.62 1500.16 148.526 1507 166.388C1486.53 186.141 1465.83 207.581 1445.74 227.87L1384.79 167.214C1404.87 115.1 1427.66 60.515 1446.04 8ZM1493.93 162.399C1480.86 122.139 1460.88 76.963 1446.68 35.823C1436.31 65.065 1423.92 94.154 1412.92 123.156C1409.72 131.592 1399.84 154.93 1398.48 162.139C1426.29 163.267 1465.78 162.975 1493.93 162.399ZM1445.72 213.496C1456.13 202.818 1482.31 174.796 1492.51 166.461C1484.05 165.598 1457.98 166.374 1448.64 166.19C1440.09 166.021 1405.47 165.565 1398.81 166.768C1414.03 181.854 1431.06 198.088 1445.72 213.496Z" fill="#DF1314"/>
<path d="M1398.48 162.139C1426.29 163.267 1465.78 162.975 1493.93 162.399L1492.51 166.461C1484.05 165.598 1457.98 166.374 1448.64 166.19C1440.09 166.021 1405.47 165.565 1398.81 166.768C1398.4 165.264 1398.51 163.742 1398.48 162.139Z" fill="#EB201A"/>
<path d="M1711.03 54.7998L1712.47 54.9498C1713.75 57.7398 1713.54 168.32 1713.47 181.07C1701.27 177.31 1685.22 170.58 1673.1 165.86C1648.57 156.18 1623.96 146.69 1599.28 137.39C1582.13 130.82 1565.04 124.11 1548 117.27L1711.03 54.7998ZM1576.45 117.51C1589.21 122.5 1604.04 128.76 1616.77 133.24C1644.86 144.16 1675.68 156.82 1703.88 166.92C1703.48 142.98 1703.28 119.03 1703.3 95.0898C1703.28 90.1998 1703.99 72.2598 1701.99 69.5598L1700.2 69.7598C1658.96 85.9498 1617.76 100.83 1576.45 117.51Z" fill="#EB201A"/>
<path d="M1669.29 105.4C1675.76 105.43 1681.01 110.65 1681.07 117.13C1681.14 123.6 1676 128.93 1669.52 129.09C1665.25 129.2 1661.25 127 1659.05 123.33C1656.86 119.65 1656.81 115.09 1658.93 111.37C1661.05 107.66 1665.01 105.37 1669.29 105.4Z" fill="#EB201A"/>
<path d="M1815.07 9.07324C1819.28 10.5652 1868.84 60.8352 1876.28 68.2482C1871.44 83.4402 1862.2 105.164 1856.24 120.522C1842.43 155.776 1828.84 191.114 1815.45 226.534C1814.84 226.984 1815.29 226.756 1813.96 226.591C1793.87 174.121 1774.07 121.546 1754.53 68.8682L1815.07 9.07324ZM1814.69 199.754C1825.09 168.97 1838.84 137.95 1850.17 107.433C1852.3 101.696 1862.42 77.0522 1863.2 73.1572L1767.29 73.1652C1782.66 115.543 1799.23 157.472 1814.69 199.754ZM1768.72 69.1062C1779.02 70.2552 1804.63 69.6542 1815.84 69.5422C1828.55 69.4162 1851.13 70.2512 1863.17 69.3252C1848.9 54.9742 1830.25 36.2782 1815.52 22.9522C1800.05 38.4752 1784.45 53.8602 1768.72 69.1062Z" fill="#DF1314"/>
<path d="M1767.29 73.1654L1768.72 69.1064C1779.02 70.2554 1804.63 69.6544 1815.84 69.5424C1828.55 69.4164 1851.13 70.2514 1863.17 69.3254L1863.2 73.1574L1767.29 73.1654Z" fill="#EB201A"/>
<path d="M1977.04 56.1777C1983.34 57.4597 2003.18 65.9887 2010.19 68.9527C2050.71 86.1077 2093.84 100.454 2133.94 118.268C2105.3 129.955 2076.12 141.193 2047.31 152.527C2026.64 159.417 1998.01 171.591 1977.05 179.693C1961.51 161.376 1934.64 135.372 1917.28 117.477C1937.08 96.9307 1957 76.4977 1977.04 56.1777ZM1981.93 69.4067L1981.23 70.2337C1980.36 71.2847 1980.66 70.8307 1980.12 71.7927L1979.45 69.8217L1977.76 69.7997C1962.41 85.7317 1946.96 101.559 1931.4 117.28C1945.93 132.294 1962.53 150.363 1977.38 164.621L1981.33 166.91L2106.59 117.877C2088.39 111.894 1990.98 69.6907 1981.93 69.4067Z" fill="#DF1314"/>
<path d="M1977.76 69.8002L1979.45 69.8222L1980.12 71.7932C1980.66 70.8312 1980.36 71.2852 1981.23 70.2342L1981.93 69.4072C1979.49 96.0442 1982.37 138.327 1981.33 166.91L1977.38 164.621C1978.32 160.538 1978.08 139.454 1978.03 133.67C1977.86 112.541 1978.31 90.8782 1977.76 69.8002Z" fill="#EB201A" fill-opacity="0.984314"/>
<path d="M2176.06 39.7492C2177.38 40.8862 2220.85 158.36 2224.09 167.799C2237.55 127.154 2256.4 80.2822 2271.67 39.7002C2274.79 40.5362 2277.01 40.7482 2279.25 43.0002C2281.22 49.5572 2274.42 61.6542 2271.49 69.1972C2270.1 75.0422 2260.06 100.492 2257.36 107.711L2224.21 196.17C2204.61 145.307 2185.51 94.2462 2166.94 42.9962L2176.06 39.7492Z" fill="#DF1314"/>
<path d="M2590.94 61.0996L2740.01 117.6C2723.39 125.07 2703.16 132.28 2686.04 138.74L2608.01 168.37L2591.24 174.77L2587.95 164.99C2593.58 163.09 2599.45 160.76 2605 158.57C2640.52 144.56 2677.03 132.19 2712.38 117.83C2699.31 113.49 2683.57 107.01 2670.43 102.04L2587.6 70.7396L2590.94 61.0996Z" fill="#EB201A"/>
<path d="M2617.46 105.52C2623.91 104.74 2629.77 109.32 2630.57 115.77C2631.36 122.21 2626.79 128.08 2620.35 128.89C2613.89 129.71 2607.99 125.12 2607.2 118.66C2606.4 112.19 2611 106.31 2617.46 105.52Z" fill="#EB201A"/>
<path d="M2787.25 40.99C2788.77 41.07 2789.06 41.0199 2789.3 41.5599C2799.86 65.7799 2830.9 148.24 2837.28 167.56C2841.76 153.26 2849.13 135.55 2854.56 121.15L2884.48 40.6299C2887.7 41.4799 2890.06 41.6799 2892.33 44.0299C2894.27 50.5499 2887.96 61.49 2885.36 68.22C2871.83 108.6 2852.47 155.13 2837.31 195.24C2824.88 163.06 2812.63 130.81 2800.56 98.49C2794.61 82.67 2785.69 60.8799 2781.01 45.0399C2782.7 42.3499 2783.73 42.62 2787.25 40.99Z" fill="#EB201A"/>
<path d="M2834.88 60.9596C2841.18 59.6396 2847.39 63.5596 2848.91 69.8196C2850.42 76.0796 2846.7 82.4095 2840.49 84.1195C2836.3 85.2695 2831.81 84.0596 2828.78 80.9396C2825.75 77.8296 2824.65 73.3096 2825.92 69.1496C2827.19 64.9896 2830.62 61.8496 2834.88 60.9596Z" fill="#EB201A"/>
<path d="M3096.72 54.7998L3098.16 54.9498C3099.44 57.7398 3099.23 168.32 3099.16 181.07C3086.96 177.31 3070.91 170.58 3058.79 165.86C3034.26 156.18 3009.65 146.69 2984.97 137.39C2967.82 130.82 2950.73 124.11 2933.69 117.27L3096.72 54.7998ZM2962.14 117.51C2974.9 122.5 2989.73 128.76 3002.46 133.24C3030.55 144.16 3061.37 156.82 3089.57 166.92C3089.17 142.98 3088.97 119.03 3088.99 95.0898C3088.97 90.1998 3089.68 72.2598 3087.68 69.5598L3085.89 69.7598C3044.65 85.9498 3003.45 100.83 2962.14 117.51Z" fill="#EB201A"/>
<path d="M3054.98 105.4C3061.45 105.43 3066.7 110.65 3066.76 117.13C3066.83 123.6 3061.69 128.93 3055.21 129.09C3050.94 129.2 3046.94 127 3044.74 123.33C3042.55 119.65 3042.5 115.09 3044.62 111.37C3046.74 107.66 3050.7 105.37 3054.98 105.4Z" fill="#EB201A"/>
<path d="M3141.33 39.7492C3142.66 40.8862 3186.13 158.36 3189.37 167.799C3202.82 127.154 3221.68 80.2822 3236.95 39.7002C3240.06 40.5362 3242.29 40.7482 3244.53 43.0002C3246.5 49.5572 3239.7 61.6542 3236.77 69.1972C3235.38 75.0422 3225.34 100.492 3222.64 107.711L3189.49 196.17C3169.88 145.307 3150.79 94.2462 3132.22 42.9962L3141.33 39.7492Z" fill="#DF1314"/>
<path d="M509.787 495.888C511.49 498.248 512.381 502.778 513.236 505.828C472.739 519.438 428.953 537.658 388.449 552.718L513.546 599.998L510.064 609.578L493.225 603.158C450.536 586.438 402.51 570.718 360.816 552.608L509.787 495.888Z" fill="#EB201A"/>
<path d="M481.034 540.228C487.339 539.518 493.074 543.928 494.002 550.208C494.931 556.478 490.719 562.368 484.478 563.508C480.244 564.288 475.923 562.698 473.21 559.348C470.496 556.008 469.822 551.458 471.452 547.468C473.082 543.488 476.756 540.708 481.034 540.228Z" fill="#EB201A"/>
<path d="M560.784 475.788C562.305 475.868 562.601 475.818 562.835 476.358C573.394 500.578 604.434 583.038 610.817 602.358C615.3 588.058 622.668 570.348 628.096 555.948L658.019 475.428C661.238 476.278 663.6 476.478 665.864 478.828C667.805 485.348 661.496 496.288 658.897 503.018C645.369 543.398 626.008 589.928 610.842 630.038C598.417 597.858 586.167 565.608 574.092 533.288C568.147 517.468 559.225 495.678 554.546 479.838C556.238 477.148 557.266 477.418 560.784 475.788Z" fill="#EB201A"/>
<path d="M608.413 495.757C614.714 494.437 620.926 498.357 622.442 504.617C623.958 510.877 620.232 517.207 614.025 518.917C609.834 520.067 605.347 518.857 602.316 515.737C599.285 512.627 598.19 508.107 599.458 503.947C600.727 499.787 604.158 496.647 608.413 495.757Z" fill="#EB201A"/>
<path d="M710.566 495.897L859.634 552.397C843.014 559.867 822.787 567.077 805.661 573.537L727.63 603.167L710.865 609.567L707.578 599.787C713.2 597.887 719.071 595.557 724.622 593.367C760.148 579.357 796.65 566.987 832.005 552.627C818.938 548.287 803.192 541.807 790.055 536.837L707.229 505.537L710.566 495.897Z" fill="#EB201A"/>
<path d="M737.089 540.318C743.535 539.538 749.397 544.118 750.193 550.568C750.989 557.008 746.419 562.878 739.977 563.688C733.514 564.508 727.62 559.918 726.821 553.458C726.023 546.988 730.623 541.108 737.089 540.318Z" fill="#EB201A"/>
<path d="M1181.87 475.787C1183.39 475.867 1183.69 475.817 1183.92 476.357C1194.48 500.577 1225.52 583.037 1231.9 602.357C1236.39 588.057 1243.76 570.347 1249.18 555.947L1279.11 475.427C1282.33 476.277 1284.69 476.477 1286.95 478.827C1288.89 485.347 1282.58 496.287 1279.98 503.017C1266.46 543.397 1247.1 589.927 1231.93 630.037C1219.5 597.857 1207.25 565.607 1195.18 533.287C1189.23 517.467 1180.31 495.677 1175.63 479.837C1177.33 477.147 1178.35 477.417 1181.87 475.787Z" fill="#EB201A"/>
<path d="M1229.5 495.756C1235.8 494.436 1242.01 498.356 1243.53 504.616C1245.05 510.876 1241.32 517.206 1235.11 518.916C1230.92 520.066 1226.44 518.856 1223.4 515.736C1220.37 512.626 1219.28 508.106 1220.55 503.946C1221.82 499.786 1225.25 496.646 1229.5 495.756Z" fill="#EB201A"/>
<path d="M1327.42 456.914L1328.97 456.848C1332.46 459.525 1352.84 526.978 1356.28 537.952C1364.33 510.599 1373.74 483.702 1382.29 456.474C1385.79 457.396 1387.01 457.843 1390.31 459.355C1390.57 459.923 1390.83 460.491 1391.09 461.06C1384.18 487.946 1368.84 527.118 1362.35 552.603C1369.7 581.215 1385.37 617.741 1391.42 644.891C1389.25 647.302 1386.52 647.65 1383.1 648.856C1380.73 647.202 1358.72 575.944 1356.3 567.377C1348.56 594.17 1338.32 621.848 1330.29 648.991L1320.32 646.108C1328.12 617.378 1340.95 581.559 1350.38 552.583C1341.29 524.155 1328.6 488.688 1321.06 460.489C1322.83 457.879 1323.73 458.301 1327.42 456.914Z" fill="#DF1314"/>
<path d="M1419.83 495.375L1570.37 552.742C1526.89 570.02 1481.84 586.577 1438.03 603.178C1432.09 605.207 1425.83 607.786 1419.94 610.09L1416.42 600.162L1542.88 552.499C1528.03 547.91 1510.74 540.89 1496.03 535.33L1416.53 505.331L1419.83 495.375Z" fill="#DF1314"/>
<path d="M1595.37 488.172C1650.48 510.439 1707.12 530.486 1762.45 552.651C1746.63 559.255 1730.7 565.579 1714.67 571.622L1595.38 617.293L1595.37 488.172ZM1605.42 602.602C1631.17 590.76 1672.67 576.506 1700.14 566.064C1711.64 561.658 1723.87 556.704 1735.4 552.602C1693.65 538.647 1647.5 518.744 1605.45 503.235C1605.91 534.885 1606.22 570.989 1605.42 602.602Z" fill="#DF1314"/>
<path d="M2070.45 489.242C2085.48 493.942 2110.06 504.302 2125.36 510.162L2235.62 552.432C2222.76 558.432 2202.04 565.782 2188.35 571.092C2151.26 585.052 2107.45 603.792 2070.58 616.222L2070.45 489.242ZM2080.65 601.822C2108.36 590.562 2143.76 576.472 2171.83 566.622L2208.28 552.552C2166.54 537.682 2122.32 519.912 2080.57 503.982C2080.63 536.452 2080.97 569.392 2080.65 601.822Z" fill="#EB201A"/>
<path d="M2113.04 540.672C2119.23 539.332 2125.38 543.103 2127.01 549.223C2128.63 555.343 2125.16 561.662 2119.11 563.572C2114.95 564.882 2110.4 563.803 2107.28 560.753C2104.15 557.703 2102.95 553.193 2104.15 548.993C2105.36 544.793 2108.77 541.602 2113.04 540.672Z" fill="#EB201A"/>
<path d="M2337.16 443.87C2341.37 445.362 2390.93 495.632 2398.37 503.045C2393.53 518.237 2384.29 539.961 2378.33 555.319C2364.52 590.573 2350.93 625.911 2337.54 661.331C2336.93 661.781 2337.38 661.553 2336.05 661.388C2315.96 608.918 2296.16 556.343 2276.62 503.665L2337.16 443.87ZM2336.78 634.551C2347.18 603.767 2360.93 572.747 2372.26 542.23C2374.39 536.493 2384.51 511.849 2385.29 507.954L2289.38 507.962C2304.75 550.34 2321.32 592.269 2336.78 634.551ZM2290.81 503.903C2301.11 505.052 2326.72 504.451 2337.93 504.339C2350.64 504.213 2373.22 505.048 2385.26 504.122C2370.99 489.771 2352.34 471.075 2337.61 457.749C2322.14 473.272 2306.54 488.657 2290.81 503.903Z" fill="#DF1314"/>
<path d="M2289.38 507.962L2290.81 503.903C2301.11 505.052 2326.72 504.451 2337.93 504.339C2350.64 504.213 2373.22 505.048 2385.26 504.122L2385.29 507.954L2289.38 507.962Z" fill="#EB201A"/>
<path d="M2434.79 495.375L2585.32 552.742C2541.84 570.02 2496.79 586.577 2452.99 603.178C2447.05 605.207 2440.79 607.786 2434.9 610.09L2431.37 600.162L2557.83 552.499C2542.99 547.91 2525.7 540.89 2510.98 535.33L2431.49 505.331L2434.79 495.375Z" fill="#DF1314"/>
<path d="M2619.44 474.546C2620.76 475.683 2664.23 593.157 2667.47 602.596C2680.93 561.951 2699.79 515.079 2715.05 474.497C2718.17 475.333 2720.39 475.545 2722.63 477.797C2724.6 484.354 2717.8 496.451 2714.87 503.994C2713.48 509.839 2703.44 535.289 2700.74 542.508L2667.6 630.967C2647.99 580.104 2628.9 529.043 2610.32 477.793L2619.44 474.546Z" fill="#DF1314"/>
<path d="M2755.99 468.397C2793.8 470.317 2845.33 468.758 2884.07 468.688C2867.92 507.688 2852.61 551.217 2837.29 591.027C2831.31 606.297 2825.53 621.647 2819.94 637.067C2798.06 581.087 2777.88 524.307 2755.99 468.397ZM2819.88 607.747C2824.11 596.097 2828.48 584.507 2832.98 572.957L2868.56 478.938C2837.08 479.238 2803.07 479.567 2771.61 478.957L2819.88 607.747Z" fill="#EB201A"/>
<path d="M2817.58 501.608C2821.83 500.648 2826.27 502.058 2829.19 505.298C2832.1 508.538 2833.04 513.098 2831.63 517.228C2830.22 521.348 2826.7 524.388 2822.41 525.178C2815.97 526.358 2809.77 522.168 2808.46 515.758C2807.14 509.348 2811.2 503.058 2817.58 501.608Z" fill="#EB201A"/>
<path d="M724.861 897.369C779.972 919.636 836.614 939.683 891.944 961.848C876.124 968.452 860.194 974.776 844.164 980.819L724.879 1026.49L724.861 897.369ZM734.91 1011.8C760.661 999.957 802.164 985.703 829.634 975.261C841.134 970.855 853.364 965.901 864.894 961.799C823.144 947.844 776.994 927.941 734.942 912.432C735.401 944.082 735.715 980.186 734.91 1011.8Z" fill="#DF1314"/>
<path d="M924.944 877.595C962.754 879.515 1014.28 877.955 1053.02 877.885C1036.87 916.885 1021.56 960.415 1006.24 1000.22C1000.26 1015.49 994.484 1030.84 988.894 1046.26C967.014 990.285 946.834 933.505 924.944 877.595ZM988.834 1016.94C993.064 1005.29 997.434 993.705 1001.93 982.155L1037.51 888.135C1006.03 888.435 972.024 888.765 940.564 888.155L988.834 1016.94Z" fill="#EB201A"/>
<path d="M986.534 910.805C990.784 909.845 995.224 911.255 998.144 914.495C1001.05 917.735 1001.99 922.295 1000.58 926.425C999.174 930.545 995.654 933.585 991.364 934.375C984.924 935.555 978.724 931.365 977.414 924.955C976.094 918.545 980.154 912.255 986.534 910.805Z" fill="#EB201A"/>
<path d="M1142.65 884.23C1144.73 887.12 1147.91 896.576 1149.26 900.283C1165.85 945.601 1183.45 990.693 1199.72 1036.12L1190.18 1039.57C1175.18 997.855 1159.07 955.757 1143.58 914.171C1140.25 916.864 1101.06 1025.12 1095.6 1039.63L1086.02 1035.98C1105.26 985.984 1123.75 934.513 1142.65 884.23Z" fill="#DF1314"/>
<path d="M1238.95 884.985C1240.48 885.065 1240.77 885.015 1241.01 885.555C1251.56 909.775 1282.6 992.235 1288.99 1011.56C1293.47 997.255 1300.84 979.545 1306.27 965.145L1336.19 884.625C1339.41 885.475 1341.77 885.675 1344.03 888.025C1345.98 894.545 1339.67 905.485 1337.07 912.215C1323.54 952.595 1304.18 999.125 1289.01 1039.24C1276.59 1007.06 1264.34 974.805 1252.26 942.485C1246.32 926.665 1237.4 904.875 1232.72 889.035C1234.41 886.345 1235.44 886.615 1238.95 884.985Z" fill="#EB201A"/>
<path d="M1286.58 904.955C1292.89 903.635 1299.1 907.555 1300.61 913.815C1302.13 920.075 1298.4 926.405 1292.2 928.115C1288.01 929.265 1283.52 928.055 1280.49 924.935C1277.46 921.825 1276.36 917.305 1277.63 913.145C1278.9 908.985 1282.33 905.845 1286.58 904.955Z" fill="#EB201A"/>
<path d="M1388.74 905.095L1537.8 961.595C1521.18 969.065 1500.96 976.275 1483.83 982.735L1405.8 1012.36L1389.04 1018.76L1385.75 1008.98C1391.37 1007.08 1397.24 1004.75 1402.79 1002.56C1438.32 988.555 1474.82 976.185 1510.18 961.825C1497.11 957.485 1481.36 951.005 1468.23 946.035L1385.4 914.735L1388.74 905.095Z" fill="#EB201A"/>
<path d="M1415.26 949.515C1421.71 948.735 1427.57 953.315 1428.36 959.765C1429.16 966.205 1424.59 972.075 1418.15 972.885C1411.68 973.705 1405.79 969.115 1404.99 962.655C1404.19 956.185 1408.79 950.305 1415.26 949.515Z" fill="#EB201A"/>
<path d="M1582.14 905.095L1731.21 961.595C1714.59 969.065 1694.36 976.275 1677.24 982.735L1599.21 1012.36L1582.44 1018.76L1579.15 1008.98C1584.78 1007.08 1590.65 1004.75 1596.2 1002.56C1631.72 988.555 1668.23 976.185 1703.58 961.825C1690.51 957.485 1674.77 951.005 1661.63 946.035L1578.8 914.735L1582.14 905.095Z" fill="#EB201A"/>
<path d="M1608.66 949.515C1615.11 948.735 1620.97 953.315 1621.77 959.765C1622.56 966.205 1617.99 972.075 1611.55 972.885C1605.09 973.705 1599.2 969.115 1598.4 962.655C1597.6 956.185 1602.2 950.305 1608.66 949.515Z" fill="#EB201A"/>
<path d="M1764.21 897.369C1819.32 919.636 1875.96 939.683 1931.29 961.848C1915.47 968.452 1899.54 974.776 1883.51 980.819L1764.23 1026.49L1764.21 897.369ZM1774.26 1011.8C1800.01 999.957 1841.51 985.703 1868.98 975.261C1880.48 970.855 1892.71 965.901 1904.24 961.799C1862.49 947.844 1816.34 927.941 1774.29 912.432C1774.75 944.082 1775.06 980.186 1774.26 1011.8Z" fill="#DF1314"/>
<path d="M1967.63 905.095L2116.7 961.595C2100.08 969.065 2079.85 976.275 2062.72 982.735L1984.69 1012.36L1967.93 1018.76L1964.64 1008.98C1970.26 1007.08 1976.13 1004.75 1981.69 1002.56C2017.21 988.555 2053.71 976.185 2089.07 961.825C2076 957.485 2060.26 951.005 2047.12 946.035L1964.29 914.735L1967.63 905.095Z" fill="#EB201A"/>
<path d="M1994.15 949.515C2000.6 948.735 2006.46 953.315 2007.26 959.765C2008.05 966.205 2003.48 972.075 1997.04 972.885C1990.58 973.705 1984.68 969.115 1983.88 962.655C1983.09 956.185 1987.69 950.305 1994.15 949.515Z" fill="#EB201A"/>
<path d="M2158.81 883.743C2160.13 884.88 2203.61 1002.35 2206.85 1011.79C2220.3 971.148 2239.16 924.276 2254.43 883.694C2257.54 884.53 2259.77 884.742 2262.01 886.994C2263.98 893.551 2257.18 905.648 2254.25 913.191C2252.85 919.036 2242.82 944.486 2240.12 951.705L2206.97 1040.16C2187.36 989.301 2168.27 938.24 2149.7 886.99L2158.81 883.743Z" fill="#DF1314"/>
<path d="M2355.12 900.172C2361.42 901.454 2381.26 909.983 2388.27 912.947C2428.79 930.102 2471.92 944.448 2512.02 962.262C2483.38 973.949 2454.2 985.187 2425.39 996.521C2404.72 1003.41 2376.09 1015.58 2355.13 1023.69C2339.59 1005.37 2312.72 979.366 2295.36 961.471C2315.16 940.925 2335.08 920.492 2355.12 900.172ZM2360.01 913.401L2359.31 914.228C2358.44 915.279 2358.74 914.825 2358.2 915.787L2357.53 913.816L2355.84 913.794C2340.49 929.726 2325.04 945.553 2309.48 961.274C2324.01 976.288 2340.61 994.357 2355.46 1008.61L2359.41 1010.9L2484.67 961.871C2466.47 955.888 2369.06 913.685 2360.01 913.401Z" fill="#DF1314"/>
<path d="M2355.84 913.794L2357.53 913.816L2358.2 915.787C2358.74 914.825 2358.44 915.279 2359.31 914.228L2360.01 913.401C2357.57 940.038 2360.45 982.321 2359.41 1010.9L2355.46 1008.62C2356.4 1004.53 2356.16 983.448 2356.11 977.664C2355.94 956.535 2356.39 934.872 2355.84 913.794Z" fill="#EB201A" fill-opacity="0.984314"/>
<path d="M395.045 1272.34C396.366 1273.47 439.836 1390.95 443.076 1400.39C456.535 1359.74 475.392 1312.87 490.657 1272.29C493.774 1273.12 495.996 1273.34 498.24 1275.59C500.208 1282.15 493.41 1294.24 490.478 1301.79C489.086 1307.63 479.05 1333.08 476.349 1340.3L443.202 1428.76C423.594 1377.9 404.502 1326.83 385.929 1275.58L395.045 1272.34Z" fill="#DF1314"/>
<path d="M530.692 1254.7L532.242 1254.64C535.732 1257.32 556.112 1324.77 559.552 1335.74C567.602 1308.39 577.012 1281.49 585.562 1254.26C589.062 1255.19 590.282 1255.63 593.582 1257.15C593.842 1257.71 594.102 1258.28 594.362 1258.85C587.452 1285.74 572.112 1324.91 565.622 1350.39C572.972 1379.01 588.642 1415.53 594.692 1442.68C592.522 1445.09 589.792 1445.44 586.372 1446.65C584.002 1444.99 561.992 1373.73 559.572 1365.17C551.832 1391.96 541.592 1419.64 533.562 1446.78L523.592 1443.9C531.392 1415.17 544.222 1379.35 553.652 1350.37C544.562 1321.95 531.872 1286.48 524.332 1258.28C526.102 1255.67 527.002 1256.09 530.692 1254.7Z" fill="#DF1314"/>
<path d="M790.721 1287.39L792.161 1287.54C793.441 1290.33 793.231 1400.91 793.161 1413.66C780.961 1409.9 764.911 1403.17 752.791 1398.45C728.261 1388.77 703.651 1379.28 678.971 1369.98C661.821 1363.41 644.731 1356.7 627.691 1349.86L790.721 1287.39ZM656.141 1350.1C668.901 1355.09 683.731 1361.35 696.461 1365.83C724.551 1376.75 755.371 1389.41 783.571 1399.51C783.171 1375.57 782.971 1351.62 782.991 1327.68C782.971 1322.79 783.681 1304.85 781.681 1302.15L779.891 1302.35C738.651 1318.54 697.451 1333.42 656.141 1350.1Z" fill="#EB201A"/>
<path d="M748.981 1337.99C755.451 1338.02 760.701 1343.24 760.761 1349.72C760.831 1356.19 755.691 1361.52 749.211 1361.68C744.941 1361.79 740.941 1359.59 738.741 1355.92C736.551 1352.24 736.501 1347.68 738.621 1343.96C740.741 1340.25 744.701 1337.96 748.981 1337.99Z" fill="#EB201A"/>
<path d="M826.218 1285.96C881.329 1308.23 937.971 1328.28 993.301 1350.44C977.481 1357.05 961.551 1363.37 945.521 1369.41L826.236 1415.08L826.218 1285.96ZM836.267 1400.39C862.018 1388.55 903.521 1374.3 930.991 1363.85C942.491 1359.45 954.721 1354.49 966.251 1350.39C924.501 1336.44 878.351 1316.53 836.299 1301.03C836.758 1332.68 837.072 1368.78 836.267 1400.39Z" fill="#DF1314"/>
<path d="M1026.3 1266.19C1064.11 1268.11 1115.64 1266.55 1154.38 1266.48C1138.23 1305.48 1122.92 1349.01 1107.6 1388.82C1101.62 1404.09 1095.84 1419.44 1090.25 1434.86C1068.37 1378.88 1048.19 1322.1 1026.3 1266.19ZM1090.19 1405.54C1094.42 1393.89 1098.79 1382.3 1103.29 1370.75L1138.87 1276.73C1107.39 1277.03 1073.38 1277.36 1041.92 1276.75L1090.19 1405.54Z" fill="#EB201A"/>
<path d="M1087.89 1299.4C1092.14 1298.44 1096.58 1299.85 1099.5 1303.09C1102.41 1306.33 1103.35 1310.89 1101.94 1315.02C1100.53 1319.14 1097.01 1322.18 1092.72 1322.97C1086.28 1324.15 1080.08 1319.96 1078.77 1313.55C1077.45 1307.14 1081.51 1300.85 1087.89 1299.4Z" fill="#EB201A"/>
<path d="M1465.8 1293.17L1616.33 1350.53C1572.85 1367.81 1527.8 1384.37 1484 1400.97C1478.05 1403 1471.79 1405.58 1465.91 1407.88L1462.38 1397.95L1588.84 1350.29C1573.99 1345.7 1556.71 1338.68 1541.99 1333.12L1462.5 1303.12L1465.8 1293.17Z" fill="#DF1314"/>
<path d="M1650.45 1272.34C1651.77 1273.47 1695.24 1390.95 1698.48 1400.39C1711.94 1359.74 1730.79 1312.87 1746.06 1272.29C1749.18 1273.12 1751.4 1273.34 1753.64 1275.59C1755.61 1282.15 1748.81 1294.24 1745.88 1301.79C1744.49 1307.63 1734.45 1333.08 1731.75 1340.3L1698.6 1428.76C1679 1377.9 1659.9 1326.83 1641.33 1275.58L1650.45 1272.34Z" fill="#DF1314"/>
<path d="M2118.5 1274.04C2120.56 1276.04 2170.14 1409.34 2175.36 1423.22L2165.54 1426.95C2162.04 1415.15 2154.15 1396.03 2149.63 1384.09L2119.03 1303.21C2113.33 1310.73 2077.65 1410.71 2071.51 1427.01L2061.99 1423.03L2118.5 1274.04Z" fill="#EB201A"/>
<path d="M2115.22 1383.91C2121.55 1382.09 2128.15 1385.76 2129.93 1392.1C2131.72 1398.43 2128 1405.01 2121.66 1406.75C2115.37 1408.49 2108.85 1404.81 2107.08 1398.53C2105.31 1392.25 2108.95 1385.71 2115.22 1383.91Z" fill="#EB201A"/>
<path d="M2279.14 1267.2C2281.92 1271.53 2294.06 1305.3 2296.81 1312.57C2312.16 1352.92 2327.31 1393.34 2342.26 1433.85L2282.37 1433.78L2216.36 1433.85L2279.14 1267.2ZM2230.89 1423.63L2281.62 1423.65C2296.47 1423.66 2313.2 1423.27 2327.89 1423.78C2322.47 1409.47 2281.59 1299.07 2278.75 1297.15C2266.17 1333.3 2251.21 1369 2238.13 1405.01C2235.92 1411.09 2233.48 1417.75 2230.89 1423.63Z" fill="#EB201A"/>
<path d="M2276.42 1377.19C2282.71 1375.56 2289.14 1379.3 2290.85 1385.57C2292.55 1391.84 2288.88 1398.32 2282.63 1400.09C2278.52 1401.25 2274.1 1400.12 2271.07 1397.12C2268.03 1394.12 2266.83 1389.72 2267.94 1385.6C2269.05 1381.47 2272.29 1378.26 2276.42 1377.19Z" fill="#EB201A"/>
<path d="M2375.26 1285.96C2430.37 1308.23 2487.01 1328.28 2542.34 1350.44C2526.52 1357.05 2510.59 1363.37 2494.56 1369.41L2375.28 1415.08L2375.26 1285.96ZM2385.31 1400.39C2411.06 1388.55 2452.56 1374.3 2480.03 1363.85C2491.53 1359.45 2503.76 1354.49 2515.29 1350.39C2473.54 1336.44 2427.39 1316.53 2385.34 1301.03C2385.8 1332.68 2386.11 1368.78 2385.31 1400.39Z" fill="#DF1314"/>
<path d="M2570.76 1293.17L2721.29 1350.53C2677.81 1367.81 2632.76 1384.37 2588.95 1400.97C2583.01 1403 2576.75 1405.58 2570.87 1407.88L2567.34 1397.95L2693.8 1350.29C2678.95 1345.7 2661.67 1338.68 2646.95 1333.12L2567.46 1303.12L2570.76 1293.17Z" fill="#DF1314"/>
<path d="M2755.41 1272.34C2756.73 1273.47 2800.2 1390.95 2803.44 1400.39C2816.9 1359.74 2835.75 1312.87 2851.02 1272.29C2854.14 1273.12 2856.36 1273.34 2858.6 1275.59C2860.57 1282.15 2853.77 1294.24 2850.84 1301.79C2849.45 1307.63 2839.41 1333.08 2836.71 1340.3L2803.56 1428.76C2783.96 1377.9 2764.86 1326.83 2746.29 1275.58L2755.41 1272.34Z" fill="#DF1314"/>
<path d="M479.842 1662.17C481.363 1662.25 481.659 1662.2 481.893 1662.74C492.452 1686.96 523.492 1769.42 529.875 1788.74C534.358 1774.44 541.726 1756.73 547.154 1742.33L577.077 1661.81C580.296 1662.66 582.658 1662.86 584.922 1665.21C586.863 1671.73 580.554 1682.67 577.955 1689.4C564.427 1729.78 545.066 1776.31 529.9 1816.42C517.475 1784.24 505.225 1751.99 493.15 1719.67C487.205 1703.85 478.283 1682.06 473.604 1666.22C475.296 1663.53 476.324 1663.8 479.842 1662.17Z" fill="#EB201A"/>
<path d="M527.471 1682.14C533.772 1680.82 539.984 1684.74 541.5 1691C543.016 1697.26 539.29 1703.59 533.083 1705.3C528.892 1706.45 524.405 1705.24 521.374 1702.12C518.343 1699.01 517.248 1694.49 518.516 1690.33C519.785 1686.17 523.216 1683.03 527.471 1682.14Z" fill="#EB201A"/>
<path d="M957.791 1662.63C959.849 1664.63 1009.43 1797.93 1014.65 1811.81L1004.83 1815.54C1001.33 1803.74 993.438 1784.62 988.927 1772.68L958.322 1691.8C952.62 1699.32 916.94 1799.3 910.807 1815.6L901.287 1811.62L957.791 1662.63Z" fill="#EB201A"/>
<path d="M954.516 1772.5C960.84 1770.68 967.439 1774.35 969.224 1780.69C971.008 1787.02 967.297 1793.6 960.952 1795.34C954.658 1797.08 948.146 1793.4 946.376 1787.12C944.606 1780.84 948.243 1774.3 954.516 1772.5Z" fill="#EB201A"/>
<path d="M1118.43 1655.79C1121.21 1660.12 1133.35 1693.89 1136.1 1701.16C1151.45 1741.51 1166.6 1781.93 1181.55 1822.44L1121.66 1822.37L1055.65 1822.44L1118.43 1655.79ZM1070.18 1812.22L1120.91 1812.24C1135.76 1812.25 1152.49 1811.86 1167.18 1812.37C1161.76 1798.06 1120.88 1687.66 1118.04 1685.74C1105.46 1721.89 1090.5 1757.59 1077.42 1793.6C1075.21 1799.68 1072.77 1806.34 1070.18 1812.22Z" fill="#EB201A"/>
<path d="M1115.71 1765.78C1122 1764.15 1128.43 1767.89 1130.14 1774.16C1131.84 1780.43 1128.17 1786.91 1121.92 1788.68C1117.81 1789.84 1113.39 1788.71 1110.36 1785.71C1107.32 1782.71 1106.12 1778.31 1107.23 1774.19C1108.34 1770.06 1111.58 1766.85 1115.71 1765.78Z" fill="#EB201A"/>
<path d="M1214.55 1674.56C1269.66 1696.82 1326.3 1716.87 1381.63 1739.03C1365.81 1745.64 1349.88 1751.96 1333.85 1758.01L1214.57 1803.68L1214.55 1674.56ZM1224.6 1788.99C1250.35 1777.14 1291.85 1762.89 1319.32 1752.45C1330.82 1748.04 1343.05 1743.09 1354.58 1738.99C1312.83 1725.03 1266.68 1705.13 1224.63 1689.62C1225.09 1721.27 1225.4 1757.37 1224.6 1788.99Z" fill="#DF1314"/>
<path d="M1681.63 1674.56C1736.74 1696.82 1793.39 1716.87 1848.72 1739.03C1832.9 1745.64 1816.97 1751.96 1800.94 1758.01L1681.65 1803.68L1681.63 1674.56ZM1691.68 1788.99C1717.43 1777.14 1758.94 1762.89 1786.41 1752.45C1797.91 1748.04 1810.14 1743.09 1821.67 1738.99C1779.92 1725.03 1733.77 1705.13 1691.71 1689.62C1692.17 1721.27 1692.49 1757.37 1691.68 1788.99Z" fill="#DF1314"/>
<path d="M1944.5 1655.79C1947.28 1660.12 1959.42 1693.89 1962.17 1701.16C1977.52 1741.51 1992.67 1781.93 2007.62 1822.44L1947.73 1822.37L1881.72 1822.44L1944.5 1655.79ZM1896.25 1812.22L1946.98 1812.24C1961.83 1812.25 1978.56 1811.86 1993.25 1812.37C1987.83 1798.06 1946.95 1687.66 1944.11 1685.74C1931.53 1721.89 1916.57 1757.59 1903.49 1793.6C1901.28 1799.68 1898.84 1806.34 1896.25 1812.22Z" fill="#EB201A"/>
<path d="M1941.78 1765.78C1948.07 1764.15 1954.5 1767.89 1956.21 1774.16C1957.91 1780.43 1954.24 1786.91 1947.99 1788.68C1943.88 1789.84 1939.46 1788.71 1936.43 1785.71C1933.39 1782.71 1932.19 1778.31 1933.3 1774.19C1934.41 1770.06 1937.65 1766.85 1941.78 1765.78Z" fill="#EB201A"/>
<path d="M2323.62 1654.78C2361.43 1656.7 2412.96 1655.14 2451.7 1655.07C2435.55 1694.07 2420.24 1737.6 2404.92 1777.41C2398.94 1792.68 2393.16 1808.03 2387.57 1823.45C2365.69 1767.47 2345.51 1710.69 2323.62 1654.78ZM2387.51 1794.13C2391.74 1782.48 2396.11 1770.89 2400.61 1759.34L2436.19 1665.32C2404.71 1665.62 2370.7 1665.95 2339.24 1665.34L2387.51 1794.13Z" fill="#EB201A"/>
<path d="M2385.21 1687.99C2389.46 1687.03 2393.9 1688.44 2396.82 1691.68C2399.73 1694.92 2400.67 1699.48 2399.26 1703.61C2397.85 1707.73 2394.33 1710.77 2390.04 1711.56C2383.6 1712.74 2377.4 1708.55 2376.09 1702.14C2374.77 1695.73 2378.83 1689.44 2385.21 1687.99Z" fill="#EB201A"/>
<path d="M2498.93 1662.17C2500.45 1662.25 2500.75 1662.2 2500.98 1662.74C2511.54 1686.96 2542.58 1769.42 2548.97 1788.74C2553.45 1774.44 2560.82 1756.73 2566.25 1742.33L2596.17 1661.81C2599.39 1662.66 2601.75 1662.86 2604.01 1665.21C2605.95 1671.73 2599.65 1682.67 2597.05 1689.4C2583.52 1729.78 2564.16 1776.31 2548.99 1816.42C2536.57 1784.24 2524.32 1751.99 2512.24 1719.67C2506.3 1703.85 2497.37 1682.06 2492.7 1666.22C2494.39 1663.53 2495.42 1663.8 2498.93 1662.17Z" fill="#EB201A"/>
<path d="M2546.56 1682.14C2552.86 1680.82 2559.08 1684.74 2560.59 1691C2562.11 1697.26 2558.38 1703.59 2552.17 1705.3C2547.98 1706.45 2543.5 1705.24 2540.47 1702.12C2537.43 1699.01 2536.34 1694.49 2537.61 1690.33C2538.88 1686.17 2542.31 1683.03 2546.56 1682.14Z" fill="#EB201A"/>
<path d="M2708.16 1655.79C2710.94 1660.12 2723.08 1693.89 2725.83 1701.16C2741.18 1741.51 2756.33 1781.93 2771.28 1822.44L2711.39 1822.37L2645.38 1822.44L2708.16 1655.79ZM2659.91 1812.22L2710.64 1812.24C2725.49 1812.25 2742.22 1811.86 2756.91 1812.37C2751.49 1798.06 2710.61 1687.66 2707.77 1685.74C2695.19 1721.89 2680.23 1757.59 2667.15 1793.6C2664.94 1799.68 2662.5 1806.34 2659.91 1812.22Z" fill="#EB201A"/>
<path d="M2705.44 1765.78C2711.73 1764.15 2718.16 1767.89 2719.87 1774.16C2721.57 1780.43 2717.9 1786.91 2711.65 1788.68C2707.54 1789.84 2703.12 1788.71 2700.09 1785.71C2697.05 1782.71 2695.85 1778.31 2696.96 1774.19C2698.07 1770.06 2701.31 1766.85 2705.44 1765.78Z" fill="#EB201A"/>
</svg>
